<svg xmlns="http://www.w3.org/2000/svg" width="4000" height="1600" viewBox="0 0 4000 1600" transform="scale(-1.1 1.1)"><defs><clipPath id="a" fill="#000"><path d="M708.267 700.8H4000v758.4H708.267Zm0 0"/></clipPath><clipPath id="b" fill="#000"><path d="M3098.816 1458.891c-401.824 0-815.533-191.083-1239.029-382.133C1483.55 907.03 1099.48 737.301 708.921 701.505c387.763 20.971 769.104 167.888 1142.771 314.813 403.563 158.679 798.162 317.358 1182.162 317.358 330.229 0 652.621-117.345 966.146-452.941v156.736c-292.938 309.485-593.6 421.422-901.184 421.422"/></clipPath><clipPath id="c" fill="#000"><path d="M3098.816 1458.891c-401.824 0-815.533-191.083-1239.029-382.133C1483.55 907.03 1099.48 737.301 708.921 701.505c387.763 20.971 769.104 167.888 1142.771 314.813 403.563 158.679 798.162 317.358 1182.162 317.358 330.229 0 652.621-117.345 966.146-452.941v156.736c-292.938 309.485-593.6 421.422-901.184 421.422"/></clipPath><clipPath id="d" fill="#000"><path d="M0 714.667h4000V1510.4H0Zm0 0"/></clipPath><clipPath id="e" fill="#000"><path d="M3038.775 1510.4c-385.326 0-781.442-160.971-1186.487-321.909-405.101-160.954-819.204-321.899-1240.754-321.899-202.188 0-406.117 37.041-611.534 128.866V831.117c188.413-81.851 375.625-115.693 561.338-115.693 441.475 0 874.908 191.062 1298.45 382.133 423.495 191.051 837.204 382.133 1239.029 382.133 307.583 0 608.245-111.937 901.183-421.421v1.55c-312.021 333.698-632.662 450.581-961.225 450.581"/></clipPath><clipPath id="f" fill="#000"><path d="M3038.775 1510.4c-385.326 0-781.442-160.971-1186.487-321.909-405.101-160.954-819.204-321.899-1240.754-321.899-202.188 0-406.117 37.041-611.534 128.866V831.117c188.413-81.851 375.625-115.693 561.338-115.693 441.475 0 874.908 191.062 1298.45 382.133 423.495 191.051 837.204 382.133 1239.029 382.133 307.583 0 608.245-111.937 901.183-421.421v1.55c-312.021 333.698-632.662 450.581-961.225 450.581"/></clipPath><clipPath id="g" fill="#000"><path d="M0 935.467h4000V1600H0Zm0 0"/></clipPath><clipPath id="h" fill="#000"><path d="M2991.766 1600h-358.87c-275.243-23.68-555.862-94.475-840.512-165.259-348.939-86.784-703.947-173.557-1062.688-173.557-241.801 0-485.254 39.403-729.696 144.832v-334.707c214.037-96.926 426.421-135.513 636.946-135.513 411.508 0 815.895 147.437 1211.683 294.87 395.755 147.424 782.946 294.87 1159.937 294.87 339.072 0 669.888-119.246 991.434-465.008v2.775c-324.491 356.633-661.537 502.446-1008.234 536.697"/></clipPath><clipPath id="i" fill="#000"><path d="M2991.766 1600h-358.87c-275.243-23.68-555.862-94.475-840.512-165.259-348.939-86.784-703.947-173.557-1062.688-173.557-241.801 0-485.254 39.403-729.696 144.832v-334.707c214.037-96.926 426.421-135.513 636.946-135.513 411.508 0 815.895 147.437 1211.683 294.87 395.755 147.424 782.946 294.87 1159.937 294.87 339.072 0 669.888-119.246 991.434-465.008v2.775c-324.491 356.633-661.537 502.446-1008.234 536.697"/></clipPath><clipPath id="j" fill="#000"><path d="M0 1062.4h4000V1600H0Zm0 0"/></clipPath><clipPath id="k" fill="#000"><path d="M4000 1600H2991.766c346.697-34.251 683.742-180.063 1008.234-536.695zm-1367.104 0H0v-193.984c244.442-105.429 487.895-144.832 729.696-144.832 358.741 0 713.749 86.773 1062.688 173.557 284.65 70.784 565.269 141.579 840.512 165.259"/></clipPath><clipPath id="l" fill="#000"><path d="M4000 1600H2991.766c346.697-34.251 683.742-180.063 1008.234-536.695zm-1367.104 0H0v-193.984c244.442-105.429 487.895-144.832 729.696-144.832 358.741 0 713.749 86.773 1062.688 173.557 284.65 70.784 565.269 141.579 840.512 165.259"/></clipPath></defs><path fill="#FFF" d="M-400-160h4800v1920H-400z"/><path fill="#3CBCED" d="M-321.6 1019.2c745.813-553.537 1473.054-278.208 2173.291-2.883C2689.717 1345.824 3489.055 1675.328 4235.2 584v1363.2l-4556.8-44.8z"/><g clip-path="url(#a)"><g clip-path="url(#b)"><g clip-path="url(#c)"><path fill="url(#linear-pattern-0)" d="M708.921 701.504v757.387H4000V701.504Zm0 0"/></g></g></g><path fill="#FFF" d="M-321.6 998.4c748.688-555.67 1478.667-238.654 2181.387 78.357C2694.871 1453.483 3491.455 1830.208 4235.2 742.4v1184l-4556.8-44.8z"/><path fill="#3CBCED" d="M-321.6 1019.2c748.688-555.67 1478.667-238.654 2181.387 78.357C2694.871 1474.282 3491.454 1851.008 4235.2 763.2v1184l-4556.8-44.8z"/><g clip-path="url(#d)"><g clip-path="url(#e)"><g clip-path="url(#f)"><path fill="url(#linear-pattern-1)" d="M0 715.424V1510.4h4000V715.424Zm0 0"/></g></g></g><path fill="#FFF" d="M-321.6 1185.6c746.025-553.692 1473.471-275.399 2173.888 2.891C2690.1 1521.376 3489.225 1854.263 4235.2 763.2v1184l-4556.8-44.8z"/><path fill="#000e4e" d="M-321.6 1262.4c744.725-552.73 1470.946-292.234 2170.229-31.733 839.147 312.596 1639.52 625.184 2386.571-467.467v1184l-4556.8-44.8z"/><g clip-path="url(#g)"><g clip-path="url(#h)"><g clip-path="url(#i)"><path fill="url(#linear-pattern-2)" d="M0 935.796V1600h4000V935.796Zm0 0"/></g></g></g><path fill="#000e4e" d="M-385.6 1630.4c737.808-547.596 1470.421-371.625 2177.984-195.659C2656.043 1649.525 3482.357 1864.309 4235.2 763.2v1184l-4556.8-44.8z"/><g clip-path="url(#j)"><g clip-path="url(#k)"><g clip-path="url(#l)"><path fill="url(#linear-pattern-3)" d="M0 1063.305V1600h4000v-536.695Zm0 0"/></g></g></g></svg>