<svg viewBox="0 0 24 24" fill="none" xmlns="http://www.w3.org/2000/svg" transform="scale(-1 1)" width="24" height="24"><g stroke-width="0"/><g stroke-linecap="round" stroke-linejoin="round"/><g fill="#fff"><path d="M14.944 1.25c-1.366 0-2.47 0-3.338.117-.9.12-1.658.38-2.26.981-.524.525-.79 1.17-.928 1.928-.135.736-.16 1.638-.166 2.72a.75.75 0 0 0 1.5.008c.006-1.094.034-1.868.142-2.457.105-.566.272-.896.514-1.138.278-.278.666-.458 1.4-.556.754-.1 1.756-.104 3.19-.104h1c1.436 0 2.438.002 3.192.104.734.099 1.122.28 1.4.556.276.278.456.664.555 1.4.102.754.104 1.756.104 3.19v8c0 1.436-.002 2.436-.104 3.192-.099.734-.279 1.122-.556 1.4s-.664.458-1.4.556c-.754.1-1.756.104-3.192.104h-1c-1.436 0-2.436-.002-3.192-.104-.734-.099-1.122-.28-1.4-.556-.243-.244-.41-.572-.514-1.138-.108-.59-.136-1.364-.142-2.457a.75.75 0 1 0-1.5.008c.006 1.082.032 1.983.166 2.72.14.758.405 1.402.93 1.928.602.602 1.36.86 2.26.982.866.116 1.97.116 3.336.116h1.11c1.368 0 2.47 0 3.338-.116.9-.122 1.658-.38 2.26-.982s.86-1.36.982-2.26c.116-.867.116-1.97.116-3.338V7.938c0-1.366 0-2.47-.116-3.338-.122-.9-.38-1.658-.982-2.26s-1.36-.86-2.26-.981c-.867-.117-1.97-.117-3.338-.117z"/><path d="M15 11.25a.75.75 0 0 1 0 1.5H4.028l1.96 1.68a.75.75 0 1 1-.976 1.14l-3.5-3a.75.75 0 0 1 0-1.14l3.5-3a.75.75 0 1 1 .976 1.14l-1.96 1.68z"/></g></svg>